# xmcd CD database file
#
# Track frame offsets:
#	150
#	18082
#	37805
#	57785
#	81000
#	100395
#	116347
#	138934
#	157987
#
# Disc length: 2384 seconds
#
# Revision: 0
# Processed by: cddbd v1.5.1PL2 Copyright (c) Steve Scherf et al.
# Submitted via: Feurio! 1.67 - http://www.feurio.com
#
DISCID=5d094e09
DTITLE=Freddie Hughes - The Soul of Freddie Hughes
DYEAR=1900
DGENRE=
TTITLE0=Do My Thing
TTITLE1=Save Our Love
TTITLE2=Nick of Time
TTITLE3=Future is Now
TTITLE4=Rock My Soul
TTITLE5=Love Land
TTITLE6=Mirage (Freddie's Theme)
TTITLE7=Trip City
TTITLE8=Hang On
EXTD=
EXTT0=
EXTT1=
EXTT2=
EXTT3=
EXTT4=
EXTT5=
EXTT6=
EXTT7=
EXTT8=
PLAYORDER=
